#!OML:ASF G:\JayActor3\Patient Classification 1\Patient 1\Session 6\male.ASF
:FULLY-SPECIFIED
:DEGREES
1926
root 4.0339 16.2717 -22.7036 173.784 -48.0423 -176.209
lowerback 6.54111 1.28315 4.04159
upperback -3.32002 2.0655 -0.245544
thorax -7.00699 0.8091 -2.78195
lowerneck 7.16557 -5.03621 -0.586109
upperneck -12.8954 -7.50903 -2.92173
head -5.15067 -3.5421 -0.309428
rclavicle -1.23992e-014 1.98785e-015
rhumerus 23.4075 2.2001 2.82549
rradius 132.783
rwrist -80.1071
rhand -25.7919 -6.94281
rfingers 7.12502
rthumb 0.746732 -36.9212
lclavicle -1.23992e-014 1.98785e-015
lhumerus -44.3262 -8.57729 78.728
lradius 29.1661
lwrist 22.4446
lhand -9.68097 8.78991
lfingers 7.12502
lthumb 16.2908 38.1256
rfemur -6.93743 -3.08254 16.5041
rtibia 33.4901
rfoot -24.0781 -12.7669
rtoes 3.38341
lfemur -2.4302 11.5236 -8.20061
ltibia 22.4971
lfoot -14.2289 9.30719
ltoes 0.39712
1927
root 4.03567 16.2724 -22.6998 173.801 -48.0679 -176.247
lowerback 6.52047 1.29342 4.03723
upperback -3.28608 2.07863 -0.228899
thorax -6.95854 0.818167 -2.76223
lowerneck 7.08589 -5.014 -0.559382
upperneck -12.4114 -7.43869 -2.95674
head -4.98869 -3.51072 -0.339758
rclavicle -4.06763e-014 2.18663e-015
rhumerus 23.417 2.59904 2.81841
rradius 132.897
rwrist -80.378
rhand -25.8916 -6.99443
rfingers 7.12502
rthumb 0.650475 -36.9732
lclavicle -4.06763e-014 2.18663e-015
lhumerus -44.3038 -8.61986 78.7804
lradius 29.1688
lwrist 22.463
lhand -9.63193 8.79927
lfingers 7.12502
lthumb 16.3381 38.1311
rfemur -6.9381 -3.05238 16.4763
rtibia 33.4918
rfoot -24.0871 -12.8128
rtoes 3.39763
lfemur -2.43108 11.5101 -8.24448
ltibia 22.476
lfoot -14.1988 9.32295
ltoes 0.373747
1928
root 4.03733 16.2731 -22.6961 173.816 -48.0937 -176.283
lowerback 6.50397 1.30238 4.03454
upperback -3.25757 2.09038 -0.212245
thorax -6.91837 0.826125 -2.74351
lowerneck 7.01419 -4.98727 -0.529631
upperneck -11.9246 -7.36323 -2.99458
head -4.82774 -3.47682 -0.371291
rclavicle 2.87989e-014 -1.98785e-015
rhumerus 23.4308 3.01174 2.80686
rradius 133.011
rwrist -80.6522
rhand -25.9802 -7.0388
rfingers 7.12502
rthumb 0.56484 -37.0178
lclavicle 2.87989e-014 -1.98785e-015
lhumerus -44.2894 -8.65682 78.8284
lradius 29.1683
lwrist 22.4835
lhand -9.57318 8.81667
lfingers 7.12502
lthumb 16.3946 38.1438
rfemur -6.93613 -3.0224 16.4503
rtibia 33.4912
rfoot -24.0988 -12.8612
rtoes 3.41044
lfemur -2.43118 11.4945 -8.28723
ltibia 22.4551
lfoot -14.1721 9.33971
ltoes 0.362758
1929
root 4.03897 16.2738 -22.6923 173.832 -48.1239 -176.32
lowerback 6.49215 1.30961 4.03281
upperback -3.23251 2.1001 -0.196471
thorax -6.8847 0.832767 -2.72623
lowerneck 6.94891 -4.95857 -0.497794
upperneck -11.4379 -7.28634 -3.03384
head -4.66842 -3.44228 -0.40319
rclavicle 3.1234e-014 -3.37934e-015
rhumerus 23.4449 3.43299 2.79823
rradius 133.127
rwrist -80.9278
rhand -26.0557 -7.0892
rfingers 7.12502
rthumb 0.49198 -37.0684
lclavicle 3.1234e-014 -3.37934e-015
lhumerus -44.2781 -8.69033 78.8742
lradius 29.1631
lwrist 22.5021
lhand -9.52524 8.83402
lfingers 7.12502
lthumb 16.4408 38.1573
rfemur -6.93021 -2.99783 16.4225
rtibia 33.4875
rfoot -24.1128 -12.9078
rtoes 3.42674
lfemur -2.43151 11.476 -8.33149
ltibia 22.4335
lfoot -14.1473 9.35347
ltoes 0.369519
1930
root 4.04058 16.2746 -22.6885 173.845 -48.157 -176.352
lowerback 6.48494 1.31499 4.03614
upperback -3.21212 2.10804 -0.180452
thorax -6.85868 0.837998 -2.71158
lowerneck 6.88711 -4.92557 -0.463914
upperneck -10.9484 -7.20446 -3.07325
head -4.50919 -3.40551 -0.43542
rclavicle -1.21259e-014 -4.17448e-015
rhumerus 23.4606 3.86208 2.78992
rradius 133.241
rwrist -81.2048
rhand -26.1043 -7.13823
rfingers 7.12502
rthumb 0.444991 -37.1175
lclavicle -1.21259e-014 -4.17448e-015
lhumerus -44.2723 -8.71692 78.916
lradius 29.153
lwrist 22.5093
lhand -9.50508 8.84152
lfingers 7.12502
lthumb 16.4602 38.1632
rfemur -6.92098 -2.97775 16.397
rtibia 33.4804
rfoot -24.1315 -12.9459
rtoes 3.46902
lfemur -2.43244 11.4539 -8.37323
ltibia 22.4106
lfoot -14.1266 9.36529
ltoes 0.399121
1931
root 4.04216 16.2754 -22.6844 173.863 -48.1962 -176.39
lowerback 6.47772 1.31848 4.03756
upperback -3.19205 2.11318 -0.16642
thorax -6.83321 0.841866 -2.69761
lowerneck 6.85983 -4.89165 -0.392903
upperneck -10.1341 -7.10802 -3.07268
head -4.71806 -3.37451 -0.522004
rclavicle 4.89507e-015 -6.75868e-015
rhumerus 23.4761 4.29232 2.78467
rradius 133.354
rwrist -81.4812
rhand -26.1269 -7.18753
rfingers 7.12502
rthumb 0.423184 -37.1669
lclavicle 4.89507e-015 -6.75868e-015
lhumerus -44.2617 -8.73846 78.9546
lradius 29.1361
lwrist 22.5051
lhand -9.50077 8.84674
lfingers 7.12502
lthumb 16.4644 38.1681
rfemur -6.90889 -2.96808 16.3639
rtibia 33.47
rfoot -24.151 -12.9738
rtoes 3.52513
lfemur -2.4349 11.4299 -8.42128
ltibia 22.3867
lfoot -14.1074 9.37314
ltoes 0.441667
1932
root 4.04374 16.2762 -22.6804 173.879 -48.2377 -176.424
lowerback 6.46941 1.32071 4.04196
upperback -3.17087 2.1168 -0.152555
thorax -6.80595 0.844915 -2.68526
lowerneck 6.78159 -4.85399 -0.345
upperneck -9.65331 -7.02207 -3.12356
head -4.52888 -3.33585 -0.561364
rclavicle -8.54029e-014 -8.34896e-015
rhumerus 23.491 4.72041 2.77984
rradius 133.463
rwrist -81.7603
rhand -26.1192 -7.23915
rfingers 7.12502
rthumb 0.430614 -37.2185
lclavicle -8.54029e-014 -8.34896e-015
lhumerus -44.2441 -8.75676 78.9902
lradius 29.1123
lwrist 22.49
lhand -9.50739 8.8508
lfingers 7.12502
lthumb 16.458 38.1727
rfemur -6.89466 -2.9627 16.3321
rtibia 33.4568
rfoot -24.17 -12.9972
rtoes 3.57993
lfemur -2.43862 11.4094 -8.46651
ltibia 22.3627
lfoot -14.0885 9.37551
ltoes 0.490728
1933
root 4.04533 16.277 -22.6764 173.891 -48.2773 -176.452
lowerback 6.45863 1.32346 4.04926
upperback -3.14691 2.12127 -0.137966
thorax -6.77418 0.848435 -2.67374
lowerneck 6.69725 -4.81269 -0.29558
upperneck -9.17397 -6.93195 -3.16971
head -4.34029 -3.29568 -0.599266
rclavicle 8.79622e-015 -9.93923e-015
rhumerus 23.5049 5.14861 2.77409
rradius 133.565
rwrist -82.0431
rhand -26.0864 -7.27237
rfingers 7.12502
rthumb 0.462264 -37.2516
lclavicle 8.79622e-015 -9.93923e-015
lhumerus -44.2175 -8.7722 79.0223
lradius 29.0865
lwrist 22.4649
lhand -9.49876 8.85866
lfingers 7.12502
lthumb 16.4663 38.1799
rfemur -6.88093 -2.95783 16.3044
rtibia 33.4418
rfoot -24.1842 -13.0196
rtoes 3.63577
lfemur -2.44309 11.3907 -8.50656
ltibia 22.3395
lfoot -14.0695 9.37652
ltoes 0.542065
1934
root 4.04683 16.2777 -22.6726 173.901 -48.3129 -176.48
lowerback 6.44583 1.32675 4.05532
upperback -3.1187 2.1262 -0.123363
thorax -6.73674 0.85247 -2.66142
lowerneck 6.61609 -4.77157 -0.244125
upperneck -8.70179 -6.84342 -3.21355
head -4.15642 -3.25654 -0.635959
rclavicle 2.64881e-014 -1.53064e-014
rhumerus 23.5211 5.57466 2.76417
rradius 133.661
rwrist -82.3326
rhand -26.0405 -7.30122
rfingers 7.12502
rthumb 0.506674 -37.2804
lclavicle 2.64881e-014 -1.53064e-014
lhumerus -44.1852 -8.78633 79.0524
lradius 29.0629
lwrist 22.4392
lhand -9.48161 8.86834
lfingers 7.12502
lthumb 16.4828 38.1882
rfemur -6.86495 -2.95553 16.2762
rtibia 33.4264
rfoot -24.1919 -13.0396
rtoes 3.66959
lfemur -2.44385 11.3754 -8.54436
ltibia 22.3181
lfoot -14.0529 9.3763
ltoes 0.594408
1935
root 4.04817 16.2782 -22.6691 173.904 -48.3408 -176.508
lowerback 6.43358 1.33183 4.06112
upperback -3.08523 2.13349 -0.10835
thorax -6.69389 0.857939 -2.64871
lowerneck 6.53788 -4.73213 -0.194648
upperneck -8.24566 -6.75869 -3.24811
head -3.97983 -3.21957 -0.668265
rclavicle 7.1314e-014 7.55382e-015
rhumerus 23.5394 6.00299 2.7522
rradius 133.752
rwrist -82.6255
rhand -25.9961 -7.32271
rfingers 7.12502
rthumb 0.549483 -37.3017
lclavicle 7.1314e-014 7.55382e-015
lhumerus -44.1475 -8.79819 79.0802
lradius 29.0426
lwrist 22.4194
lhand -9.4631 8.87072
lfingers 7.12502
lthumb 16.5006 38.1891
rfemur -6.84524 -2.95116 16.2485
rtibia 33.4123
rfoot -24.1924 -13.056
rtoes 3.6942
lfemur -2.43675 11.366 -8.5781
ltibia 22.2987
lfoot -14.0372 9.3776
ltoes 0.626998
